ISO-10303-21;
HEADER;
FILE_DESCRIPTION (( 'STEP AP214' ),
    '1' );
FILE_NAME ('01 - FSB - 1004 - Tube.STEP',
    '2026-09-14T20:21:14',
    ( '' ),
    ( '' ),
    'SwSTEP 2.0',
    'SolidWorks 2025',
    '' );
FILE_SCHEMA (( 'AUTOMOTIVE_DESIGN' ));
ENDSEC;

DATA;
#1 = CARTESIAN_POINT ( 'NONE',  ( 0.000000000000000000, 0.000000000000000000, -75.00000000000000000 ) ) ;
#2 = EDGE_CURVE ( 'NONE', #44, #19, #162, .T. ) ;
#3 = EDGE_CURVE ( 'NONE', #78, #42, #201, .T. ) ;
#4 = DIRECTION ( 'NONE',  ( 1.000000000000000000, 0.000000000000000000, 0.000000000000000000 ) ) ;
#5 = ORIENTED_EDGE ( 'NONE', *, *, #2, .F. ) ;
#6 = PRODUCT ( '01 - FSB - 1004 - Tube', '01 - FSB - 1004 - Tube', '', ( #211 ) ) ;
#7 = VERTEX_POINT ( 'NONE', #116 ) ;
#8 = DIRECTION ( 'NONE',  ( 0.000000000000000000, 0.000000000000000000, -1.000000000000000000 ) ) ;
#9 = CIRCLE ( 'NONE', #120, 11.00000000000000000 ) ;
#10 = CARTESIAN_POINT ( 'NONE',  ( 0.000000000000000000, 0.000000000000000000, -73.99999999999997158 ) ) ;
#11 = DIRECTION ( 'NONE',  ( -0.000000000000000000, -0.000000000000000000, -1.000000000000000000 ) ) ;
#12 = CARTESIAN_POINT ( 'NONE',  ( 0.000000000000000000, 0.000000000000000000, 73.99999999999998579 ) ) ;
#13 = EDGE_CURVE ( 'NONE', #19, #42, #189, .T. ) ;
#14 = DIRECTION ( 'NONE',  ( 1.000000000000000000, 0.000000000000000000, 0.000000000000000000 ) ) ;
#15 = AXIS2_PLACEMENT_3D ( 'NONE', #199, #98, #167 ) ;
#16 = DIRECTION ( 'NONE',  ( 0.7071067811865487940, 0.000000000000000000, 0.7071067811865463515 ) ) ;
#17 = VECTOR ( 'NONE', #63, 1000.000000000000000 ) ;
#18 = DIRECTION ( 'NONE',  ( 0.000000000000000000, 0.000000000000000000, 1.000000000000000000 ) ) ;
#19 = VERTEX_POINT ( 'NONE', #48 ) ;
#20 = EDGE_CURVE ( 'NONE', #93, #43, #216, .T. ) ;
#21 = DIRECTION ( 'NONE',  ( 1.000000000000000000, 0.000000000000000000, 0.000000000000000000 ) ) ;
#22 = ORIENTED_EDGE ( 'NONE', *, *, #150, .T. ) ;
#23 = ORIENTED_EDGE ( 'NONE', *, *, #121, .T. ) ;
#24 = ORIENTED_EDGE ( 'NONE', *, *, #26, .T. ) ;
#25 = AXIS2_PLACEMENT_3D ( 'NONE', #1, #205, #4 ) ;
#26 = EDGE_CURVE ( 'NONE', #43, #44, #191, .T. ) ;
#27 = EDGE_LOOP ( 'NONE', ( #142, #39 ) ) ;
#28 = CARTESIAN_POINT ( 'NONE',  ( 0.000000000000000000, 0.000000000000000000, -73.99999999999997158 ) ) ;
#29 = ADVANCED_FACE ( 'NONE', ( #220 ), #104, .T. ) ;
#30 = DIRECTION ( 'NONE',  ( -0.000000000000000000, -0.000000000000000000, 1.000000000000000000 ) ) ;
#31 = AXIS2_PLACEMENT_3D ( 'NONE', #82, #187, #139 ) ;
#32 = DIRECTION ( 'NONE',  ( 1.000000000000000000, 0.000000000000000000, -0.000000000000000000 ) ) ;
#33 = CARTESIAN_POINT ( 'NONE',  ( -11.00000000000000000, 1.347111479062088405E-15, -73.99999999999997158 ) ) ;
#34 = CARTESIAN_POINT ( 'NONE',  ( 9.999999999999980460, 1.224646799147350890E-15, 75.00000000000000000 ) ) ;
#35 = ADVANCED_FACE ( 'NONE', ( #115 ), #177, .T. ) ;
#36 = APPLICATION_PROTOCOL_DEFINITION ( 'draft international standard', 'automotive_design', 1998, #169 ) ;
#37 = DIRECTION ( 'NONE',  ( 1.000000000000000000, 0.000000000000000000, -0.000000000000000000 ) ) ;
#38 = EDGE_CURVE ( 'NONE', #42, #19, #9, .T. ) ;
#39 = ORIENTED_EDGE ( 'NONE', *, *, #209, .T. ) ;
#40 = LINE ( 'NONE', #224, #192 ) ;
#41 = ORIENTED_EDGE ( 'NONE', *, *, #38, .F. ) ;
#42 = VERTEX_POINT ( 'NONE', #122 ) ;
#43 = VERTEX_POINT ( 'NONE', #223 ) ;
#44 = VERTEX_POINT ( 'NONE', #151 ) ;
#45 = FACE_OUTER_BOUND ( 'NONE', #77, .T. ) ;
#46 = CARTESIAN_POINT ( 'NONE',  ( 11.00000000000000000, 1.347111479062088405E-15, 75.00000000000000000 ) ) ;
#47 = EDGE_CURVE ( 'NONE', #44, #127, #97, .T. ) ;
#48 = CARTESIAN_POINT ( 'NONE',  ( 11.00000000000000000, 1.347111479062088405E-15, -73.99999999999997158 ) ) ;
#49 = DIRECTION ( 'NONE',  ( 1.000000000000000000, 0.000000000000000000, 0.000000000000000000 ) ) ;
#50 = AXIS2_PLACEMENT_3D ( 'NONE', #12, #8, #101 ) ;
#51 = DIRECTION ( 'NONE',  ( 1.000000000000000000, 0.000000000000000000, 0.000000000000000000 ) ) ;
#52 = SURFACE_STYLE_USAGE ( .BOTH. , #70 ) ;
#53 = FACE_OUTER_BOUND ( 'NONE', #197, .T. ) ;
#54 = AXIS2_PLACEMENT_3D ( 'NONE', #180, #160, #21 ) ;
#55 = ORIENTED_EDGE ( 'NONE', *, *, #209, .F. ) ;
#56 = ORIENTED_EDGE ( 'NONE', *, *, #13, .F. ) ;
#57 = PRESENTATION_STYLE_ASSIGNMENT (( #52 ) ) ;
#58 = AXIS2_PLACEMENT_3D ( 'NONE', #81, #153, #14 ) ;
#59 = ORIENTED_EDGE ( 'NONE', *, *, #129, .T. ) ;
#60 = VECTOR ( 'NONE', #200, 1000.000000000000000 ) ;
#61 = SHAPE_DEFINITION_REPRESENTATION ( #186, #90 ) ;
#62 = CARTESIAN_POINT ( 'NONE',  ( -9.999999999999968026, 1.285879139104718858E-15, -75.00000000000000000 ) ) ;
#63 = DIRECTION ( 'NONE',  ( -0.000000000000000000, -0.000000000000000000, -1.000000000000000000 ) ) ;
#64 = DIRECTION ( 'NONE',  ( 0.7071067811865487940, 8.659560562354950115E-17, -0.7071067811865463515 ) ) ;
#65 = DIRECTION ( 'NONE',  ( 1.000000000000000000, 0.000000000000000000, 0.000000000000000000 ) ) ;
#66 = AXIS2_PLACEMENT_3D ( 'NONE', #219, #166, #32 ) ;
#67 = CLOSED_SHELL ( 'NONE', ( #72, #35, #154, #29, #225, #105, #112, #96 ) ) ;
#68 = EDGE_CURVE ( 'NONE', #127, #44, #133, .T. ) ;
#69 = DIRECTION ( 'NONE',  ( -0.000000000000000000, -0.000000000000000000, 1.000000000000000000 ) ) ;
#70 = SURFACE_SIDE_STYLE ('',( #88 ) ) ;
#71 = DIRECTION ( 'NONE',  ( 1.000000000000000000, 0.000000000000000000, 0.000000000000000000 ) ) ;
#72 = ADVANCED_FACE ( 'NONE', ( #100 ), #119, .T. ) ;
#73 = DIRECTION ( 'NONE',  ( -0.000000000000000000, -0.000000000000000000, -1.000000000000000000 ) ) ;
#74 =( GEOMETRIC_REPRESENTATION_CONTEXT ( 3 ) GLOBAL_UNCERTAINTY_ASSIGNED_CONTEXT ( ( #134 ) ) GLOBAL_UNIT_ASSIGNED_CONTEXT ( ( #124, #204, #141 ) ) REPRESENTATION_CONTEXT ( 'NONE', 'WORKASPACE' ) );
#75 = EDGE_LOOP ( 'NONE', ( #55, #181, #56, #92 ) ) ;
#76 = FILL_AREA_STYLE_COLOUR ( '', #138 ) ;
#77 = EDGE_LOOP ( 'NONE', ( #183, #132, #22, #212 ) ) ;
#78 = VERTEX_POINT ( 'NONE', #62 ) ;
#79 = CARTESIAN_POINT ( 'NONE',  ( 0.000000000000000000, 0.000000000000000000, -75.00000000000000000 ) ) ;
#80 = EDGE_CURVE ( 'NONE', #7, #78, #215, .T. ) ;
#81 = CARTESIAN_POINT ( 'NONE',  ( 0.000000000000000000, 0.000000000000000000, -73.99999999999997158 ) ) ;
#82 = CARTESIAN_POINT ( 'NONE',  ( 0.000000000000000000, 0.000000000000000000, 75.00000000000000000 ) ) ;
#83 = CARTESIAN_POINT ( 'NONE',  ( 0.000000000000000000, 0.000000000000000000, 73.99999999999998579 ) ) ;
#84 = PRODUCT_DEFINITION_FORMATION_WITH_SPECIFIED_SOURCE ( 'ANY', '', #6, .NOT_KNOWN. ) ;
#85 = LINE ( 'NONE', #203, #87 ) ;
#86 = CARTESIAN_POINT ( 'NONE',  ( -11.00000000000000000, 0.000000000000000000, 73.99999999999998579 ) ) ;
#87 = VECTOR ( 'NONE', #16, 1000.000000000000000 ) ;
#88 = SURFACE_STYLE_FILL_AREA ( #193 ) ;
#89 = AXIS2_PLACEMENT_3D ( 'NONE', #218, #168, #123 ) ;
#90 = ADVANCED_BREP_SHAPE_REPRESENTATION ( '01 - FSB - 1004 - Tube', ( #170, #54 ), #74 ) ;
#91 = ORIENTED_EDGE ( 'NONE', *, *, #68, .F. ) ;
#92 = ORIENTED_EDGE ( 'NONE', *, *, #121, .F. ) ;
#93 = VERTEX_POINT ( 'NONE', #135 ) ;
#94 = CIRCLE ( 'NONE', #25, 9.999999999999968026 ) ;
#95 = PRODUCT_DEFINITION_CONTEXT ( 'detailed design', #198, 'design' ) ;
#96 = ADVANCED_FACE ( 'NONE', ( #45 ), #107, .T. ) ;
#97 = CIRCLE ( 'NONE', #50, 11.00000000000000000 ) ;
#98 = DIRECTION ( 'NONE',  ( 0.000000000000000000, 0.000000000000000000, -1.000000000000000000 ) ) ;
#99 = UNCERTAINTY_MEASURE_WITH_UNIT (LENGTH_MEASURE( 1.000000000000000082E-05 ), #208, 'distance_accuracy_value', 'NONE');
#100 = FACE_OUTER_BOUND ( 'NONE', #195, .T. ) ;
#101 = DIRECTION ( 'NONE',  ( 1.000000000000000000, 0.000000000000000000, 0.000000000000000000 ) ) ;
#102 = PRODUCT_DEFINITION ( 'UNKNOWN', '', #84, #95 ) ;
#103 = DIRECTION ( 'NONE',  ( 0.000000000000000000, 0.000000000000000000, 1.000000000000000000 ) ) ;
#104 = CYLINDRICAL_SURFACE ( 'NONE', #222, 11.00000000000000000 ) ;
#105 = ADVANCED_FACE ( 'NONE', ( #152 ), #149, .F. ) ;
#106 = FACE_OUTER_BOUND ( 'NONE', #144, .T. ) ;
#107 = CONICAL_SURFACE ( 'NONE', #31, 9.999999999999980460, 0.7853981633974500554 ) ;
#108 =( NAMED_UNIT ( * ) PLANE_ANGLE_UNIT ( ) SI_UNIT ( $, .RADIAN. ) );
#109 = AXIS2_PLACEMENT_3D ( 'NONE', #190, #103, #184 ) ;
#110 = DIRECTION ( 'NONE',  ( 0.000000000000000000, 0.000000000000000000, 1.000000000000000000 ) ) ;
#111 = ORIENTED_EDGE ( 'NONE', *, *, #3, .F. ) ;
#112 = ADVANCED_FACE ( 'NONE', ( #217 ), #155, .T. ) ;
#113 = CARTESIAN_POINT ( 'NONE',  ( 0.000000000000000000, 0.000000000000000000, 75.00000000000000000 ) ) ;
#114 = ORIENTED_EDGE ( 'NONE', *, *, #80, .F. ) ;
#115 = FACE_OUTER_BOUND ( 'NONE', #75, .T. ) ;
#116 = CARTESIAN_POINT ( 'NONE',  ( 9.999999999999968026, 0.000000000000000000, -75.00000000000000000 ) ) ;
#117 = DIRECTION ( 'NONE',  ( -0.000000000000000000, -0.000000000000000000, -1.000000000000000000 ) ) ;
#118 = MECHANICAL_DESIGN_GEOMETRIC_PRESENTATION_REPRESENTATION (  '', ( #145 ), #164 ) ;
#119 = CONICAL_SURFACE ( 'NONE', #15, 9.999999999999980460, 0.7853981633974500554 ) ;
#120 = AXIS2_PLACEMENT_3D ( 'NONE', #10, #69, #49 ) ;
#121 = EDGE_CURVE ( 'NONE', #7, #19, #85, .T. ) ;
#122 = CARTESIAN_POINT ( 'NONE',  ( -11.00000000000000000, 0.000000000000000000, -73.99999999999997158 ) ) ;
#123 = DIRECTION ( 'NONE',  ( 1.000000000000000000, 0.000000000000000000, 0.000000000000000000 ) ) ;
#124 =( LENGTH_UNIT ( ) NAMED_UNIT ( * ) SI_UNIT ( .MILLI., .METRE. ) );
#125 = PLANE ( 'NONE',  #131 ) ;
#126 = CIRCLE ( 'NONE', #173, 9.999999999999980460 ) ;
#127 = VERTEX_POINT ( 'NONE', #86 ) ;
#128 = CYLINDRICAL_SURFACE ( 'NONE', #188, 11.00000000000000000 ) ;
#129 = EDGE_CURVE ( 'NONE', #127, #42, #178, .T. ) ;
#130 = EDGE_LOOP ( 'NONE', ( #111, #114, #23, #41 ) ) ;
#131 = AXIS2_PLACEMENT_3D ( 'NONE', #156, #110, #37 ) ;
#132 = ORIENTED_EDGE ( 'NONE', *, *, #20, .F. ) ;
#133 = CIRCLE ( 'NONE', #158, 11.00000000000000000 ) ;
#134 = UNCERTAINTY_MEASURE_WITH_UNIT (LENGTH_MEASURE( 1.000000000000000082E-05 ), #124, 'distance_accuracy_value', 'NONE');
#135 = CARTESIAN_POINT ( 'NONE',  ( -9.999999999999980460, 0.000000000000000000, 75.00000000000000000 ) ) ;
#136 = DIRECTION ( 'NONE',  ( 1.000000000000000000, 0.000000000000000000, 0.000000000000000000 ) ) ;
#137 = PRODUCT_RELATED_PRODUCT_CATEGORY ( 'part', '', ( #6 ) ) ;
#138 = COLOUR_RGB ( '',0.2980392156862745057, 0.2980392156862745057, 0.2980392156862745057 ) ;
#139 = DIRECTION ( 'NONE',  ( -1.000000000000000000, 0.000000000000000000, 0.000000000000000000 ) ) ;
#140 = CARTESIAN_POINT ( 'NONE',  ( 0.000000000000000000, 0.000000000000000000, 75.00000000000000000 ) ) ;
#141 =( NAMED_UNIT ( * ) SI_UNIT ( $, .STERADIAN. ) SOLID_ANGLE_UNIT ( ) );
#142 = ORIENTED_EDGE ( 'NONE', *, *, #80, .T. ) ;
#143 = APPLICATION_PROTOCOL_DEFINITION ( 'draft international standard', 'automotive_design', 1998, #198 ) ;
#144 = EDGE_LOOP ( 'NONE', ( #207, #159, #194, #179 ) ) ;
#145 = STYLED_ITEM ( 'NONE', ( #57 ), #170 ) ;
#146 = ORIENTED_EDGE ( 'NONE', *, *, #150, .F. ) ;
#147 = AXIS2_PLACEMENT_3D ( 'NONE', #79, #11, #136 ) ;
#148 = AXIS2_PLACEMENT_3D ( 'NONE', #28, #30, #65 ) ;
#149 = PLANE ( 'NONE',  #66 ) ;
#150 = EDGE_CURVE ( 'NONE', #93, #127, #40, .T. ) ;
#151 = CARTESIAN_POINT ( 'NONE',  ( 11.00000000000000000, 1.347111479062088405E-15, 73.99999999999998579 ) ) ;
#152 = FACE_OUTER_BOUND ( 'NONE', #27, .T. ) ;
#153 = DIRECTION ( 'NONE',  ( -0.000000000000000000, -0.000000000000000000, 1.000000000000000000 ) ) ;
#154 = ADVANCED_FACE ( 'NONE', ( #106 ), #128, .T. ) ;
#155 = CONICAL_SURFACE ( 'NONE', #58, 11.00000000000000000, 0.7853981633974500554 ) ;
#156 = CARTESIAN_POINT ( 'NONE',  ( 0.000000000000000000, 0.000000000000000000, 75.00000000000000000 ) ) ;
#157 =( NAMED_UNIT ( * ) SI_UNIT ( $, .STERADIAN. ) SOLID_ANGLE_UNIT ( ) );
#158 = AXIS2_PLACEMENT_3D ( 'NONE', #83, #185, #51 ) ;
#159 = ORIENTED_EDGE ( 'NONE', *, *, #2, .T. ) ;
#160 = DIRECTION ( 'NONE',  ( 0.000000000000000000, 0.000000000000000000, 1.000000000000000000 ) ) ;
#161 = ORIENTED_EDGE ( 'NONE', *, *, #38, .T. ) ;
#162 = LINE ( 'NONE', #46, #17 ) ;
#163 = ORIENTED_EDGE ( 'NONE', *, *, #47, .T. ) ;
#164 =( GEOMETRIC_REPRESENTATION_CONTEXT ( 3 ) GLOBAL_UNCERTAINTY_ASSIGNED_CONTEXT ( ( #99 ) ) GLOBAL_UNIT_ASSIGNED_CONTEXT ( ( #208, #108, #157 ) ) REPRESENTATION_CONTEXT ( 'NONE', 'WORKASPACE' ) );
#165 = VECTOR ( 'NONE', #64, 1000.000000000000000 ) ;
#166 = DIRECTION ( 'NONE',  ( 0.000000000000000000, 0.000000000000000000, 1.000000000000000000 ) ) ;
#167 = DIRECTION ( 'NONE',  ( -1.000000000000000000, 0.000000000000000000, 0.000000000000000000 ) ) ;
#168 = DIRECTION ( 'NONE',  ( -0.000000000000000000, -0.000000000000000000, 1.000000000000000000 ) ) ;
#169 = APPLICATION_CONTEXT ( 'automotive_design' ) ;
#170 = MANIFOLD_SOLID_BREP ( 'Chamfer1', #67 ) ;
#171 = DIRECTION ( 'NONE',  ( -1.000000000000000000, 0.000000000000000000, 0.000000000000000000 ) ) ;
#172 = DIRECTION ( 'NONE',  ( -0.000000000000000000, -0.000000000000000000, -1.000000000000000000 ) ) ;
#173 = AXIS2_PLACEMENT_3D ( 'NONE', #140, #18, #71 ) ;
#174 = CARTESIAN_POINT ( 'NONE',  ( -11.00000000000000000, 0.000000000000000000, 75.00000000000000000 ) ) ;
#175 = DIRECTION ( 'NONE',  ( -1.000000000000000000, 0.000000000000000000, 0.000000000000000000 ) ) ;
#176 = EDGE_CURVE ( 'NONE', #43, #93, #126, .T. ) ;
#177 = CONICAL_SURFACE ( 'NONE', #148, 11.00000000000000000, 0.7853981633974500554 ) ;
#178 = LINE ( 'NONE', #174, #221 ) ;
#179 = ORIENTED_EDGE ( 'NONE', *, *, #129, .F. ) ;
#180 = CARTESIAN_POINT ( 'NONE',  ( 0.000000000000000000, 0.000000000000000000, 0.000000000000000000 ) ) ;
#181 = ORIENTED_EDGE ( 'NONE', *, *, #3, .T. ) ;
#182 = EDGE_LOOP ( 'NONE', ( #5, #163, #59, #161 ) ) ;
#183 = ORIENTED_EDGE ( 'NONE', *, *, #26, .F. ) ;
#184 = DIRECTION ( 'NONE',  ( 1.000000000000000000, 0.000000000000000000, 0.000000000000000000 ) ) ;
#185 = DIRECTION ( 'NONE',  ( 0.000000000000000000, 0.000000000000000000, -1.000000000000000000 ) ) ;
#186 = PRODUCT_DEFINITION_SHAPE ( 'NONE', 'NONE',  #102 ) ;
#187 = DIRECTION ( 'NONE',  ( 0.000000000000000000, 0.000000000000000000, -1.000000000000000000 ) ) ;
#188 = AXIS2_PLACEMENT_3D ( 'NONE', #113, #73, #175 ) ;
#189 = CIRCLE ( 'NONE', #89, 11.00000000000000000 ) ;
#190 = CARTESIAN_POINT ( 'NONE',  ( 0.000000000000000000, 0.000000000000000000, 75.00000000000000000 ) ) ;
#191 = LINE ( 'NONE', #34, #165 ) ;
#192 = VECTOR ( 'NONE', #206, 1000.000000000000000 ) ;
#193 = FILL_AREA_STYLE ('',( #76 ) ) ;
#194 = ORIENTED_EDGE ( 'NONE', *, *, #13, .T. ) ;
#195 = EDGE_LOOP ( 'NONE', ( #214, #24, #91, #146 ) ) ;
#196 = ORIENTED_EDGE ( 'NONE', *, *, #176, .T. ) ;
#197 = EDGE_LOOP ( 'NONE', ( #210, #196 ) ) ;
#198 = APPLICATION_CONTEXT ( 'automotive_design' ) ;
#199 = CARTESIAN_POINT ( 'NONE',  ( 0.000000000000000000, 0.000000000000000000, 75.00000000000000000 ) ) ;
#200 = DIRECTION ( 'NONE',  ( -0.7071067811865487940, 8.659560562354948882E-17, 0.7071067811865463515 ) ) ;
#201 = LINE ( 'NONE', #33, #60 ) ;
#202 = CARTESIAN_POINT ( 'NONE',  ( 0.000000000000000000, 0.000000000000000000, 75.00000000000000000 ) ) ;
#203 = CARTESIAN_POINT ( 'NONE',  ( 11.00000000000000000, 0.000000000000000000, -73.99999999999997158 ) ) ;
#204 =( NAMED_UNIT ( * ) PLANE_ANGLE_UNIT ( ) SI_UNIT ( $, .RADIAN. ) );
#205 = DIRECTION ( 'NONE',  ( -0.000000000000000000, -0.000000000000000000, -1.000000000000000000 ) ) ;
#206 = DIRECTION ( 'NONE',  ( -0.7071067811865487940, 0.000000000000000000, -0.7071067811865463515 ) ) ;
#207 = ORIENTED_EDGE ( 'NONE', *, *, #68, .T. ) ;
#208 =( LENGTH_UNIT ( ) NAMED_UNIT ( * ) SI_UNIT ( .MILLI., .METRE. ) );
#209 = EDGE_CURVE ( 'NONE', #78, #7, #94, .T. ) ;
#210 = ORIENTED_EDGE ( 'NONE', *, *, #20, .T. ) ;
#211 = PRODUCT_CONTEXT ( 'NONE', #169, 'mechanical' ) ;
#212 = ORIENTED_EDGE ( 'NONE', *, *, #47, .F. ) ;
#213 = PRESENTATION_LAYER_ASSIGNMENT (  '', '', ( #145 ) ) ;
#214 = ORIENTED_EDGE ( 'NONE', *, *, #176, .F. ) ;
#215 = CIRCLE ( 'NONE', #147, 9.999999999999968026 ) ;
#216 = CIRCLE ( 'NONE', #109, 9.999999999999980460 ) ;
#217 = FACE_OUTER_BOUND ( 'NONE', #130, .T. ) ;
#218 = CARTESIAN_POINT ( 'NONE',  ( 0.000000000000000000, 0.000000000000000000, -73.99999999999997158 ) ) ;
#219 = CARTESIAN_POINT ( 'NONE',  ( 0.000000000000000000, 0.000000000000000000, -75.00000000000000000 ) ) ;
#220 = FACE_OUTER_BOUND ( 'NONE', #182, .T. ) ;
#221 = VECTOR ( 'NONE', #172, 1000.000000000000000 ) ;
#222 = AXIS2_PLACEMENT_3D ( 'NONE', #202, #117, #171 ) ;
#223 = CARTESIAN_POINT ( 'NONE',  ( 9.999999999999980460, 1.285879139104719647E-15, 75.00000000000000000 ) ) ;
#224 = CARTESIAN_POINT ( 'NONE',  ( -9.999999999999980460, 0.000000000000000000, 75.00000000000000000 ) ) ;
#225 = ADVANCED_FACE ( 'NONE', ( #53 ), #125, .T. ) ;
ENDSEC;
END-ISO-10303-21;
